<svg xmlns="http://www.w3.org/2000/svg" viewBox="0 0 128 128" width="128" height="128">
  <defs>
    <linearGradient id="neonGrad" x1="0%" y1="0%" x2="100%" y2="100%">
      <stop offset="0%" stop-color="#00f0ff" />
      <stop offset="50%" stop-color="#7000ff" />
      <stop offset="100%" stop-color="#ff007f" />
    </linearGradient>
    <filter id="glow" x="-20%" y="-20%" width="140%" height="140%">
      <feGaussianBlur stdDeviation="3" result="blur" />
      <feComposite in="SourceGraphic" in2="blur" operator="over" />
    </filter>
  </defs>
  
  <!-- Outer Dark Cyber Plate -->
  <rect x="4" y="4" width="120" height="120" rx="28" fill="#05070f" stroke="#00f0ff" stroke-width="2" />
  
  <!-- Corner Tech Accents -->
  <path d="M 12 28 L 12 12 L 28 12" fill="none" stroke="#ff007f" stroke-width="2" />
  <path d="M 116 28 L 116 12 L 100 12" fill="none" stroke="#00f0ff" stroke-width="2" />
  <path d="M 12 100 L 12 116 L 28 116" fill="none" stroke="#00f0ff" stroke-width="2" />
  <path d="M 116 100 L 116 116 L 100 116" fill="none" stroke="#ff007f" stroke-width="2" />

  <!-- Audio Waveform Grid Lines -->
  <line x1="28" y1="64" x2="28" y2="64" stroke="#00f0ff" stroke-width="4" stroke-linecap="round" />
  <line x1="38" y1="52" x2="38" y2="76" stroke="#00f0ff" stroke-width="4" stroke-linecap="round" />
  <line x1="48" y1="40" x2="48" y2="88" stroke="url(#neonGrad)" stroke-width="4" stroke-linecap="round" />
  
  <!-- Phonetic IPA /ə/ (Schwa) Symbol Centerpiece -->
  <text x="74" y="76" font-family="'JetBrains Mono', 'Fira Code', 'Courier New', monospace" font-size="44" font-weight="900" fill="url(#neonGrad)" filter="url(#glow)" text-anchor="middle">/ə/</text>

  <line x1="100" y1="46" x2="100" y2="82" stroke="#ff007f" stroke-width="4" stroke-linecap="round" />
  
  <!-- Status LED -->
  <circle cx="106" cy="22" r="3" fill="#00ff66" />
</svg>